<svg xmlns="http://www.w3.org/2000/svg" width="433" height="358" viewBox="0 0 433 358" fill="none">
<path opacity=".1" d="M44.2134 41.74C48.2488 17.6491 69.0998 0.000244141 93.5263 0.000244141H383C410.614 0.000244141 433 22.386 433 50.0002V308C433 335.614 410.614 358 383 358H50.3093C19.3958 358 -4.11074 330.229 0.996361 299.74L44.2134 41.74Z" fill="#68C9BA"/>
<ellipse rx="16.8402" ry="9.95502" transform="matrix(0.935268 0.353941 -0.353609 0.935393 17.422 12.1504)" stroke="white" stroke-width="1.5" style="transform: translate(69%, 15%)"/>
<path d="M182.746 79.0296C208.457 108.207 178.098 136.381 124.666 137.141C18.4364 130.137 -5.53526 36.0075 2.49308 14.9029C10.5214 -6.20174 34.427 -6.77777 69.8468 36.2152C105.267 79.2082 150.608 42.5574 182.746 79.0296Z" stroke="white" stroke-width="1.5" style="transform: translate(50%, 2%)"/>
</svg>