<svg xmlns="http://www.w3.org/2000/svg" width="433" height="359" viewBox="0 0 433 359" fill="none">
<path opacity=".1" d="M44.2095 41.7411C48.245 17.6503 69.096 0.00152588 93.5225 0.00152588H383C410.614 0.00152588 433 22.3873 433 50.0015V308.002C433 335.616 410.614 358.002 383 358.002H50.3051C19.3915 358.002 -4.11508 330.23 0.992075 299.741L44.2095 41.7411Z" fill="#2D9CDB"/>
<path d="M58.6173 226.712C-1.88496 238.919 -16.5016 174.795 24.8671 100.691C118.814 -39.8767 267.188 1.86546 289.815 29.6612C312.443 57.457 294.259 90.7983 207.066 105.395C119.873 119.991 134.245 211.454 58.6173 226.712Z" stroke="white" stroke-width="1.5" style="transform: translate(10%, 6%)"/>
<ellipse rx="30.9105" ry="18.2725" transform="matrix(0.935269 0.353938 -0.353612 0.935392 30.4212 22.0324)" stroke="white" stroke-width="1.5" style="transform: translate(85%, 86%) rotate(25deg)"/>
</svg>